<svg xmlns="http://www.w3.org/2000/svg" xmlns:xlink="http://www.w3.org/1999/xlink" width="43.18mm" height="27.051mm" viewBox="4010 3307 170 106.5"><title></title><style type="text/css">
*[layerid="1"] {stroke:#FFFFFF;fill:#FFFFFF;}
*[layerid="2"] {stroke:#FFFFFF;fill:#FFFFFF;}
*[layerid="3"] {stroke:#FFFFFF;fill:#FFFFFF;}
*[layerid="4"] {stroke:#FFFFFF;fill:#FFFFFF;}
*[layerid="5"] {stroke:#FFFFFF;fill:#FFFFFF;}
*[layerid="6"] {stroke:#FFFFFF;fill:#FFFFFF;}
*[layerid="7"] {stroke:#FFFFFF;fill:#FFFFFF;}
*[layerid="8"] {stroke:#FFFFFF;fill:#FFFFFF;}
*[layerid="9"] {stroke:#FFFFFF;fill:#FFFFFF;}
*[layerid="10"] {stroke:#FFFFFF;fill:#FFFFFF;}
*[layerid="11"] {stroke:#FFFFFF;fill:#FFFFFF;}
*[layerid="12"] {stroke:#FFFFFF;fill:#FFFFFF;}
*[layerid="13"] {stroke:#FFFFFF;fill:#FFFFFF;}
*[layerid="14"] {stroke:#FFFFFF;fill:#FFFFFF;}
*[layerid="15"] {stroke:#FFFFFF;fill:#FFFFFF;}
*[layerid="19"] {stroke:#FFFFFF;fill:#FFFFFF;}
*[layerid="21"] {stroke:#FFFFFF;fill:#FFFFFF;}
*[layerid="22"] {stroke:#FFFFFF;fill:#FFFFFF;}
*[layerid="23"] {stroke:#FFFFFF;fill:#FFFFFF;}
*[layerid="24"] {stroke:#FFFFFF;fill:#FFFFFF;}
*[layerid="25"] {stroke:#FFFFFF;fill:#FFFFFF;}
*[layerid="26"] {stroke:#FFFFFF;fill:#FFFFFF;}
*[layerid="27"] {stroke:#FFFFFF;fill:#FFFFFF;}
*[layerid="28"] {stroke:#FFFFFF;fill:#FFFFFF;}
*[layerid="29"] {stroke:#FFFFFF;fill:#FFFFFF;}
*[layerid="30"] {stroke:#FFFFFF;fill:#FFFFFF;}
*[layerid="31"] {stroke:#FFFFFF;fill:#FFFFFF;}
*[layerid="32"] {stroke:#FFFFFF;fill:#FFFFFF;}
*[layerid="33"] {stroke:#FFFFFF;fill:#FFFFFF;}
*[layerid="34"] {stroke:#FFFFFF;fill:#FFFFFF;}
*[layerid="35"] {stroke:#FFFFFF;fill:#FFFFFF;}
*[layerid="36"] {stroke:#FFFFFF;fill:#FFFFFF;}
*[layerid="37"] {stroke:#FFFFFF;fill:#FFFFFF;}
*[layerid="38"] {stroke:#FFFFFF;fill:#FFFFFF;}
*[layerid="39"] {stroke:#FFFFFF;fill:#FFFFFF;}
*[layerid="40"] {stroke:#FFFFFF;fill:#FFFFFF;}
*[layerid="41"] {stroke:#FFFFFF;fill:#FFFFFF;}
*[layerid="42"] {stroke:#FFFFFF;fill:#FFFFFF;}
*[layerid="43"] {stroke:#FFFFFF;fill:#FFFFFF;}
*[layerid="44"] {stroke:#FFFFFF;fill:#FFFFFF;}
*[layerid="45"] {stroke:#FFFFFF;fill:#FFFFFF;}
*[layerid="46"] {stroke:#FFFFFF;fill:#FFFFFF;}
*[layerid="47"] {stroke:#FFFFFF;fill:#FFFFFF;}
*[layerid="48"] {stroke:#FFFFFF;fill:#FFFFFF;}
*[layerid="49"] {stroke:#FFFFFF;fill:#FFFFFF;}
*[layerid="50"] {stroke:#FFFFFF;fill:#FFFFFF;}
*[layerid="51"] {stroke:#FFFFFF;fill:#FFFFFF;}
*[layerid="52"] {stroke:#FFFFFF;fill:#FFFFFF;}
*[layerid="99"] {stroke:#FFFFFF;fill:#FFFFFF;}
*[layerid="100"] {stroke:#FFFFFF;fill:#FFFFFF;}
*[layerid="101"] {stroke:#FFFFFF;fill:#FFFFFF;}
*[layerid="Hole"] {stroke:#FFFFFF;fill:#FFFFFF;}
*[layerid="DRCError"] {stroke:#FFFFFF;fill:#FFFFFF;}
*[fill="none"] {fill: none;}
*[stroke="none"] {stroke: none;}
path, polyline, polygon, line {stroke-linecap:round;}
g[c_partid="part_pad"][layerid="1"] ellipse:not([c_etype="pad_outer"]) {fill:#FFFFFF;}
g[c_partid="part_pad"][layerid="1"] polygon:not([c_etype="pad_outer"]) {fill:#FFFFFF;}
g[c_partid="part_pad"][layerid="1"] polyline:not([c_etype="pad_outer"]) {stroke:#FFFFFF;}
g[c_partid="part_pad"][layerid="2"] ellipse:not([c_etype="pad_outer"]) {fill:#FFFFFF;}
g[c_partid="part_pad"][layerid="2"] polygon:not([c_etype="pad_outer"]) {fill:#FFFFFF;}
g[c_partid="part_pad"][layerid="2"] polyline:not([c_etype="pad_outer"]) {stroke:#FFFFFF;}
g[c_partid="part_pad"][layerid="11"] ellipse:not([c_etype="pad_outer"]) {fill:#FFFFFF;}
g[c_partid="part_pad"][layerid="11"] polygon:not([c_etype="pad_outer"]) {fill:#FFFFFF;}
g[c_partid="part_pad"][layerid="11"] polyline:not([c_etype="pad_outer"]) {stroke:#FFFFFF;}
g[c_partid="part_pad"][layerid="11"] circle {fill:#000000;}
g[c_partid="part_pad"][layerid="11"] > polyline:nth-of-type(2) {stroke:#000000;}
g[c_partid="part_pad"][layerid="11"][c_shape="ELLIPSE"]  polyline:nth-last-of-type(1) {stroke:#000000;}
g[c_partid="part_pad"][layerid="11"][c_shape="RECT"]  polyline:nth-last-of-type(1) {stroke:#000000;}
g[c_partid="part_pad"][layerid="11"][c_shape="POLYGON"]  polyline:nth-last-of-type(1) {stroke:#000000;}
g[c_partid="part_via"] > * + circle, #gCurParts g[c_partid="part_via"] > * + circle {fill:#000000;}
g[c_partid="part_pad"] > polygon[c_etype="pad_outer"], #gCurParts g[c_partid="part_pad"] > polygon[c_etype="pad_outer"] {stroke-linejoin: miter;stroke-miterlimit: 100;}
g[c_partid="part_hole"] > circle {fill: #000000;}path, polyline, polygon {stroke-linejoin:round;}
rect, circle, ellipse, polyline, line, polygon, path {shape-rendering:crispEdges;}
</style>
<rect x="4010" y="3307" width="170" height="106.5" fill="#000000" stroke="none"/><polyline points="4159.079 3347.508 4144.203 3347.508 4141.41 3350.301" stroke-width="1"  stroke-linecap="round" fill="none" layerid="1" net="BC805M_7" id="gge4478" locked="0" /><polyline points="4125.036 3367.196 4128.6 3367.196 4143.957 3351.839 4159.079 3351.839" stroke-width="1"  stroke-linecap="round" fill="none" layerid="1" net="BC805M_6" id="gge4490" locked="0" /><polyline points="4165.43 3355.142 4164.402 3356.17 4159.079 3356.17" stroke-width="1"  stroke-linecap="round" fill="none" layerid="1" net="BC805M_5" id="gge4514" locked="0" /><polyline points="4150.975 3355.377 4150.975 3359.983 4155.823 3364.831 4159.079 3364.831" stroke-width="1"  stroke-linecap="round" fill="none" layerid="1" net="BC805M_3" id="gge4532" locked="0" /><polyline points="4127.872 3373.245 4131.955 3369.162 4159.079 3369.162" stroke-width="1"  stroke-linecap="round" fill="none" layerid="1" net="BC805M_2" id="gge4541" locked="0" /><polyline points="4076 3395 4081.402 3400.402 4097.743 3400.402 4113.709 3384.436 4113.709 3379.297 4114.563 3378.443 4154.128 3378.443 4159.079 3373.492" stroke-width="1"  stroke-linecap="round" fill="none" layerid="1" net="BC805M_1" id="gge4550" locked="0" /><polyline points="4124.719 3332.59 4124.546 3332.59" stroke-width="1"  stroke-linecap="round" fill="none" layerid="1" net="BC805M_9" id="gge4556" locked="0" /><polyline points="4124.546 3332.59 4124.546 3349.11 4121.817 3351.839 4118.921 3351.839" stroke-width="1"  stroke-linecap="round" fill="none" layerid="1" net="BC805M_9" id="gge4562" locked="0" /><polyline points="4123.963 3329 4124.546 3329.583 4124.546 3332.59" stroke-width="1"  stroke-linecap="round" fill="none" layerid="1" net="BC805M_9" id="gge4565" locked="0" /><polyline points="4086 3395 4105.619 3375.381 4105.619 3361.814 4115.594 3351.839 4118.921 3351.839" stroke-width="1"  stroke-linecap="round" fill="none" layerid="1" net="BC805M_9" id="gge4568" locked="0" /><polyline points="4108.5 3329 4123.963 3329" stroke-width="1"  stroke-linecap="round" fill="none" layerid="1" net="BC805M_9" id="gge4571" locked="0" /><polyline points="4118.921 3347.508 4115.64 3347.508 4099.385 3363.763 4099.385 3377.049" stroke-width="1"  stroke-linecap="round" fill="none" layerid="1" net="BC805M_8" id="gge4586" locked="0" /><polyline points="4073.5 3369 4052.132 3369" stroke-width="1"  stroke-linecap="round" fill="none" layerid="1" net="KEY3_1" id="gge4604" locked="0" /><polyline points="4052.132 3369 4052.132 3368.404 4049.507 3365.779" stroke-width="1"  stroke-linecap="round" fill="none" layerid="1" net="KEY3_1" id="gge4610" locked="0" /><polyline points="4073.861 3369 4073.5 3369" stroke-width="1"  stroke-linecap="round" fill="none" layerid="1" net="KEY3_1" id="gge4613" locked="0" /><polyline points="4073.861 3369 4094.868 3369" stroke-width="1"  stroke-linecap="round" fill="none" layerid="1" net="KEY3_1" id="gge4616" locked="0" /><polyline points="4094.868 3369 4095.599 3369" stroke-width="1"  stroke-linecap="round" fill="none" layerid="1" net="KEY3_1" id="gge4625" locked="0" /><g c_partid="part_pad" c_etype="pinpart" c_origin="4108.5,3329" layerid="1" number="1" net="BC805M_9" plated ="Y"  id="gge4757" locked="0" c_rotation="0" c_width="27.5591" c_height="19.685" title="BC805M_9" c_shape="RECT" pasteexpansion="0" solderexpansion="0.2"><polygon  c_etype="pad_shell" points="4094.7205 3319.1575 4122.2795 3319.1575 4122.2795 3338.8425 4094.7205 3338.8425" layerid="1" stroke-width="0" /><circle c_etype="pad_hole" cx="4108.5" cy="3329" r="0" layerid="1" stroke-width="0"/></g><g c_partid="part_pad" c_etype="pinpart" c_origin="4073.5,3369" layerid="1" number="1" net="KEY3_1" plated ="Y"  id="gge4784" locked="0" c_rotation="0" c_width="27.5591" c_height="19.685" title="KEY3_1" c_shape="RECT" pasteexpansion="0" solderexpansion="0.2"><polygon  c_etype="pad_shell" points="4059.7205 3359.1575 4087.2795 3359.1575 4087.2795 3378.8425 4059.7205 3378.8425" layerid="1" stroke-width="0" /><circle c_etype="pad_hole" cx="4073.5" cy="3369" r="0" layerid="1" stroke-width="0"/></g><g c_partid="part_pad" c_etype="pinpart" c_origin="4159.079,3347.512" layerid="1" number="7" net="BC805M_7" plated ="Y"  id="gge4820" locked="0" c_rotation="180" c_width="7.874" c_height="2.9134" title="BC805M_7" c_shape="OVAL" pasteexpansion="0" solderexpansion="0.4"><polyline  c_etype="pad_shell" points="4161.5593 3347.512 4156.5987 3347.512" layerid="1" stroke-width="2.9134" /><circle c_etype="pad_hole" cx="4159.0789" cy="3347.5119" r="0" layerid="1" stroke-width="0"/></g><g c_partid="part_pad" c_etype="pinpart" c_origin="4159.079,3351.843" layerid="1" number="6" net="BC805M_6" plated ="Y"  id="gge4835" locked="0" c_rotation="180" c_width="7.874" c_height="2.9134" title="BC805M_6" c_shape="OVAL" pasteexpansion="0" solderexpansion="0.4"><polyline  c_etype="pad_shell" points="4161.5593 3351.843 4156.5987 3351.843" layerid="1" stroke-width="2.9134" /><circle c_etype="pad_hole" cx="4159.079" cy="3351.8426" r="0" layerid="1" stroke-width="0"/></g><g c_partid="part_pad" c_etype="pinpart" c_origin="4159.079,3356.174" layerid="1" number="5" net="BC805M_5" plated ="Y"  id="gge4850" locked="0" c_rotation="180" c_width="7.874" c_height="2.9134" title="BC805M_5" c_shape="OVAL" pasteexpansion="0" solderexpansion="0.4"><polyline  c_etype="pad_shell" points="4161.5593 3356.174 4156.5987 3356.174" layerid="1" stroke-width="2.9134" /><circle c_etype="pad_hole" cx="4159.079" cy="3356.1733" r="0" layerid="1" stroke-width="0"/></g><g c_partid="part_pad" c_etype="pinpart" c_origin="4159.079,3360.504" layerid="1" number="4" net="BC805M_4" plated ="Y"  id="gge4865" locked="0" c_rotation="180" c_width="7.874" c_height="2.9134" title="BC805M_4" c_shape="OVAL" pasteexpansion="0" solderexpansion="0.4"><polyline  c_etype="pad_shell" points="4161.5593 3360.504 4156.5987 3360.504" layerid="1" stroke-width="2.9134" /><circle c_etype="pad_hole" cx="4159.0789" cy="3360.504" r="0" layerid="1" stroke-width="0"/></g><g c_partid="part_pad" c_etype="pinpart" c_origin="4159.079,3364.835" layerid="1" number="3" net="BC805M_3" plated ="Y"  id="gge4880" locked="0" c_rotation="180" c_width="7.874" c_height="2.9134" title="BC805M_3" c_shape="OVAL" pasteexpansion="0" solderexpansion="0.4"><polyline  c_etype="pad_shell" points="4161.5593 3364.835 4156.5987 3364.835" layerid="1" stroke-width="2.9134" /><circle c_etype="pad_hole" cx="4159.079" cy="3364.8347" r="0" layerid="1" stroke-width="0"/></g><g c_partid="part_pad" c_etype="pinpart" c_origin="4159.079,3369.166" layerid="1" number="2" net="BC805M_2" plated ="Y"  id="gge4895" locked="0" c_rotation="180" c_width="7.874" c_height="2.9134" title="BC805M_2" c_shape="OVAL" pasteexpansion="0" solderexpansion="0.4"><polyline  c_etype="pad_shell" points="4161.5593 3369.166 4156.5987 3369.166" layerid="1" stroke-width="2.9134" /><circle c_etype="pad_hole" cx="4159.079" cy="3369.1654" r="0" layerid="1" stroke-width="0"/></g><g c_partid="part_pad" c_etype="pinpart" c_origin="4159.079,3373.496" layerid="1" number="1" net="BC805M_1" plated ="Y"  id="gge4910" locked="0" c_rotation="180" c_width="7.874" c_height="2.9134" title="BC805M_1" c_shape="OVAL" pasteexpansion="0" solderexpansion="0.4"><polyline  c_etype="pad_shell" points="4161.5593 3373.496 4156.5987 3373.496" layerid="1" stroke-width="2.9134" /><circle c_etype="pad_hole" cx="4159.079" cy="3373.4961" r="0" layerid="1" stroke-width="0"/></g><g c_partid="part_pad" c_etype="pinpart" c_origin="4118.921,3373.496" layerid="1" number="14" net="BC805M_14" plated ="Y"  id="gge4925" locked="0" c_rotation="180" c_width="7.874" c_height="2.9134" title="BC805M_14" c_shape="OVAL" pasteexpansion="0" solderexpansion="0.4"><polyline  c_etype="pad_shell" points="4121.4013 3373.496 4116.4407 3373.496" layerid="1" stroke-width="2.9134" /><circle c_etype="pad_hole" cx="4118.9214" cy="3373.4961" r="0" layerid="1" stroke-width="0"/></g><g c_partid="part_pad" c_etype="pinpart" c_origin="4118.921,3369.166" layerid="1" number="13" net="BC805M_13" plated ="Y"  id="gge4940" locked="0" c_rotation="180" c_width="7.874" c_height="2.9134" title="BC805M_13" c_shape="OVAL" pasteexpansion="0" solderexpansion="0.4"><polyline  c_etype="pad_shell" points="4121.4013 3369.166 4116.4407 3369.166" layerid="1" stroke-width="2.9134" /><circle c_etype="pad_hole" cx="4118.9214" cy="3369.1654" r="0" layerid="1" stroke-width="0"/></g><g c_partid="part_pad" c_etype="pinpart" c_origin="4118.921,3364.835" layerid="1" number="12" net="BC805M_12" plated ="Y"  id="gge4955" locked="0" c_rotation="180" c_width="7.874" c_height="2.9134" title="BC805M_12" c_shape="OVAL" pasteexpansion="0" solderexpansion="0.4"><polyline  c_etype="pad_shell" points="4121.4013 3364.835 4116.4407 3364.835" layerid="1" stroke-width="2.9134" /><circle c_etype="pad_hole" cx="4118.9214" cy="3364.8347" r="0" layerid="1" stroke-width="0"/></g><g c_partid="part_pad" c_etype="pinpart" c_origin="4118.921,3360.504" layerid="1" number="11" net="BC805M_11" plated ="Y"  id="gge4970" locked="0" c_rotation="180" c_width="7.874" c_height="2.9134" title="BC805M_11" c_shape="OVAL" pasteexpansion="0" solderexpansion="0.4"><polyline  c_etype="pad_shell" points="4121.4013 3360.504 4116.4407 3360.504" layerid="1" stroke-width="2.9134" /><circle c_etype="pad_hole" cx="4118.9213" cy="3360.5039" r="0" layerid="1" stroke-width="0"/></g><g c_partid="part_pad" c_etype="pinpart" c_origin="4118.921,3356.174" layerid="1" number="10" net="BC805M_10" plated ="Y"  id="gge4985" locked="0" c_rotation="180" c_width="7.874" c_height="2.9134" title="BC805M_10" c_shape="OVAL" pasteexpansion="0" solderexpansion="0.4"><polyline  c_etype="pad_shell" points="4121.4013 3356.174 4116.4407 3356.174" layerid="1" stroke-width="2.9134" /><circle c_etype="pad_hole" cx="4118.9214" cy="3356.1733" r="0" layerid="1" stroke-width="0"/></g><g c_partid="part_pad" c_etype="pinpart" c_origin="4118.921,3351.843" layerid="1" number="9" net="BC805M_9" plated ="Y"  id="gge5000" locked="0" c_rotation="180" c_width="7.874" c_height="2.9134" title="BC805M_9" c_shape="OVAL" pasteexpansion="0" solderexpansion="0.4"><polyline  c_etype="pad_shell" points="4121.4013 3351.843 4116.4407 3351.843" layerid="1" stroke-width="2.9134" /><circle c_etype="pad_hole" cx="4118.9214" cy="3351.8426" r="0" layerid="1" stroke-width="0"/></g><g c_partid="part_pad" c_etype="pinpart" c_origin="4118.921,3347.512" layerid="1" number="8" net="BC805M_8" plated ="Y"  id="gge5015" locked="0" c_rotation="180" c_width="7.874" c_height="2.9134" title="BC805M_8" c_shape="OVAL" pasteexpansion="0" solderexpansion="0.4"><polyline  c_etype="pad_shell" points="4121.4013 3347.512 4116.4407 3347.512" layerid="1" stroke-width="2.9134" /><circle c_etype="pad_hole" cx="4118.9213" cy="3347.5118" r="0" layerid="1" stroke-width="0"/></g><g c_partid="part_pad" c_etype="pinpart" c_origin="4028,3395.5" layerid="11" number="5" net="" plated ="Y"  id="gge1119" locked="0" c_rotation="0" c_width="11.811" c_height="11.811" title="" c_shape="ELLIPSE" pasteexpansion="0" solderexpansion="0.2"><ellipse c_etype="pad_shell" cx="4028" cy="3395.5" rx="5.9055" ry="5.9055" layerid="11" stroke-width="0"/><circle c_etype="pad_hole" cx="4028" cy="3395.5" r="3.7402" layerid="11" stroke-width="0"/></g><g c_partid="part_pad" c_etype="pinpart" c_origin="4157,3325.5" layerid="11" number="6" net="" plated ="Y"  id="gge1137" locked="0" c_rotation="0" c_width="11.811" c_height="11.811" title="" c_shape="ELLIPSE" pasteexpansion="0" solderexpansion="0.2"><ellipse c_etype="pad_shell" cx="4157" cy="3325.5" rx="5.9055" ry="5.9055" layerid="11" stroke-width="0"/><circle c_etype="pad_hole" cx="4157" cy="3325.5" r="3.7402" layerid="11" stroke-width="0"/></g><g c_partid="part_pad" c_etype="pinpart" c_origin="4066,3395" layerid="11" number="1" net="BC805M_2" plated ="Y"  id="gge5081" locked="0" c_rotation="0" c_width="6.6929" c_height="6.6929" title="BC805M_2" c_shape="RECT" pasteexpansion="0" solderexpansion="0.2"><polygon  c_etype="pad_shell" points="4062.6535 3391.6535 4069.3465 3391.6535 4069.3465 3398.3465 4062.6535 3398.3465" layerid="11" stroke-width="0" /><circle c_etype="pad_hole" cx="4066" cy="3395" r="2.1654" layerid="11" stroke-width="0"/></g><g c_partid="part_pad" c_etype="pinpart" c_origin="4076,3395" layerid="11" number="2" net="BC805M_1" plated ="Y"  id="gge5096" locked="0" c_rotation="0" c_width="6.6929" c_height="6.6929" title="BC805M_1" c_shape="ELLIPSE" pasteexpansion="0" solderexpansion="0.2"><ellipse c_etype="pad_shell" cx="4076" cy="3395" rx="3.34645" ry="3.34645" layerid="11" stroke-width="0"/><circle c_etype="pad_hole" cx="4076" cy="3395" r="2.1654" layerid="11" stroke-width="0"/></g><g c_partid="part_pad" c_etype="pinpart" c_origin="4086,3395" layerid="11" number="3" net="BC805M_9" plated ="Y"  id="gge5111" locked="0" c_rotation="0" c_width="6.6929" c_height="6.6929" title="BC805M_9" c_shape="ELLIPSE" pasteexpansion="0" solderexpansion="0.2"><ellipse c_etype="pad_shell" cx="4086" cy="3395" rx="3.34645" ry="3.34645" layerid="11" stroke-width="0"/><circle c_etype="pad_hole" cx="4086" cy="3395" r="2.1654" layerid="11" stroke-width="0"/></g><g c_partid="part_pad" c_etype="pinpart" c_origin="4096,3395" layerid="11" number="4" net="BC805M_8" plated ="Y"  id="gge5126" locked="0" c_rotation="0" c_width="6.6929" c_height="6.6929" title="BC805M_8" c_shape="ELLIPSE" pasteexpansion="0" solderexpansion="0.2"><ellipse c_etype="pad_shell" cx="4096" cy="3395" rx="3.34645" ry="3.34645" layerid="11" stroke-width="0"/><circle c_etype="pad_hole" cx="4096" cy="3395" r="2.1654" layerid="11" stroke-width="0"/></g><g c_partid="part_via" c_etype="pinpart" c_shapetype="group" net="BC805M_7" c_origin="4141.41,3350.301" layerid="11" id="gge4487" locked="0" solderexpansion=""><circle cx="4141.41" cy="3350.301" r="1.2008" stroke-width="0" c_etype="pad_shell"/><circle cx="4141.41" cy="3350.301" r="0.6004"  stroke-width="0" c_etype="pad_hole"/></g><g c_partid="part_via" c_etype="pinpart" c_shapetype="group" net="BC805M_6" c_origin="4125.036,3367.196" layerid="11" id="gge4508" locked="0" solderexpansion=""><circle cx="4125.036" cy="3367.196" r="1.2008" stroke-width="0" c_etype="pad_shell"/><circle cx="4125.036" cy="3367.196" r="0.6004"  stroke-width="0" c_etype="pad_hole"/></g><g c_partid="part_via" c_etype="pinpart" c_shapetype="group" net="BC805M_5" c_origin="4165.43,3355.142" layerid="11" id="gge4529" locked="0" solderexpansion=""><circle cx="4165.43" cy="3355.142" r="1.2008" stroke-width="0" c_etype="pad_shell"/><circle cx="4165.43" cy="3355.142" r="0.6004"  stroke-width="0" c_etype="pad_hole"/></g><g c_partid="part_via" c_etype="pinpart" c_shapetype="group" net="BC805M_3" c_origin="4150.975,3355.377" layerid="11" id="gge4538" locked="0" solderexpansion=""><circle cx="4150.975" cy="3355.377" r="1.2008" stroke-width="0" c_etype="pad_shell"/><circle cx="4150.975" cy="3355.377" r="0.6004"  stroke-width="0" c_etype="pad_hole"/></g><g c_partid="part_via" c_etype="pinpart" c_shapetype="group" net="BC805M_2" c_origin="4127.872,3373.245" layerid="11" id="gge4547" locked="0" solderexpansion=""><circle cx="4127.872" cy="3373.245" r="1.2008" stroke-width="0" c_etype="pad_shell"/><circle cx="4127.872" cy="3373.245" r="0.6004"  stroke-width="0" c_etype="pad_hole"/></g><g c_partid="part_via" c_etype="pinpart" c_shapetype="group" net="BC805M_9" c_origin="4124.719,3332.59" layerid="11" id="gge4574" locked="0" solderexpansion=""><circle cx="4124.719" cy="3332.59" r="1.2008" stroke-width="0" c_etype="pad_shell"/><circle cx="4124.719" cy="3332.59" r="0.6004"  stroke-width="0" c_etype="pad_hole"/></g><g c_partid="part_via" c_etype="pinpart" c_shapetype="group" net="BC805M_8" c_origin="4099.385,3377.049" layerid="11" id="gge4598" locked="0" solderexpansion=""><circle cx="4099.385" cy="3377.049" r="1.2008" stroke-width="0" c_etype="pad_shell"/><circle cx="4099.385" cy="3377.049" r="0.6004"  stroke-width="0" c_etype="pad_hole"/></g><g c_partid="part_via" c_etype="pinpart" c_shapetype="group" net="KEY3_1" c_origin="4049.507,3365.779" layerid="11" id="gge4631" locked="0" solderexpansion=""><circle cx="4049.507" cy="3365.779" r="1.2008" stroke-width="0" c_etype="pad_shell"/><circle cx="4049.507" cy="3365.779" r="0.6004"  stroke-width="0" c_etype="pad_hole"/></g><g c_partid="part_via" c_etype="pinpart" c_shapetype="group" net="KEY3_1" c_origin="4095.599,3369" layerid="11" id="gge4634" locked="0" solderexpansion=""><circle cx="4095.599" cy="3369" r="1.2008" stroke-width="0" c_etype="pad_shell"/><circle cx="4095.599" cy="3369" r="0.6004"  stroke-width="0" c_etype="pad_hole"/></g><polyline points="4123.6459 3377.8268 4123.6459 3398.2993 4128.764 3398.2993 4128.764 3384.5197 4133.4884 3384.5197 4133.4884 3398.2993 4139.0002 3398.2993 4139.0002 3384.5197 4143.7246 3384.5197 4143.7246 3398.2993 4148.8427 3398.2993 4148.8427 3384.5197 4153.9608 3384.5197 4153.9608 3398.2993" stroke-width="0.7874"  stroke-linecap="round" fill="none" layerid="3" net="" id="gge4811" locked="0" /><polyline points="4161.0475 3375.8583 4161.0475 3401.8426 4116.9529 3401.8426 4116.9529 3375.8583" stroke-width="0.7874"  stroke-linecap="round" fill="none" layerid="3" net="" id="gge4814" locked="0" /><polyline points="4161.0475 3345.1496 4161.0475 3341.6063 4116.9529 3341.6063 4116.9529 3345.1496" stroke-width="0.7874"  stroke-linecap="round" fill="none" layerid="3" net="" id="gge4817" locked="0" /><polyline points="4101.8268 3390 4101.8268 3400" stroke-width="1"  stroke-linecap="round" fill="none" layerid="3" net="" id="gge5048" locked="0" /><polyline points="4060.1732 3390 4101.8268 3390" stroke-width="1"  stroke-linecap="round" fill="none" layerid="3" net="" id="gge5051" locked="0" /><polyline points="4071.0926 3390 4071.0926 3400" stroke-width="1"  stroke-linecap="round" fill="none" layerid="3" net="" id="gge5054" locked="0" /><polyline points="4060.1732 3400 4101.8268 3400" stroke-width="1"  stroke-linecap="round" fill="none" layerid="3" net="" id="gge5057" locked="0" /><polyline points="4060.1732 3390 4060.1732 3400" stroke-width="1"  stroke-linecap="round" fill="none" layerid="3" net="" id="gge5060" locked="0" /><g c_partid="part_pcbtext" c_etype="pinpart" c_origin="4051.427,3329.729" c_rotation="0" c_mirror="0" id="gge4643" locked="0" layerid="3" c_shapetype="group" ><path c_fontsize="3.1496" c_fontfamily="" c_text="COWBOY REMOTE\nv0.1 - April 2022\nBy JOUKE" d="M 4053.5723 3327.263 L 4053.4323 3326.983 L 4053.1423 3326.693 L 4052.8623 3326.553 L 4052.2823 3326.553 L 4052.0023 3326.693 L 4051.7123 3326.983 L 4051.5723 3327.263 L 4051.4223 3327.693 L 4051.4223 3328.413 L 4051.5723 3328.843 L 4051.7123 3329.123 L 4052.0023 3329.413 L 4052.2823 3329.553 L 4052.8623 3329.553 L 4053.1423 3329.413 L 4053.4323 3329.123 L 4053.5723 3328.843 M 4055.3823 3326.553 L 4055.0923 3326.693 L 4054.8023 3326.983 L 4054.6623 3327.263 L 4054.5223 3327.693 L 4054.5223 3328.413 L 4054.6623 3328.843 L 4054.8023 3329.123 L 4055.0923 3329.413 L 4055.3823 3329.553 L 4055.9523 3329.553 L 4056.2323 3329.413 L 4056.5223 3329.123 L 4056.6623 3328.843 L 4056.8123 3328.413 L 4056.8123 3327.693 L 4056.6623 3327.263 L 4056.5223 3326.983 L 4056.2323 3326.693 L 4055.9523 3326.553 L 4055.3823 3326.553 M 4057.7523 3326.553 L 4058.4723 3329.553 M 4059.1823 3326.553 L 4058.4723 3329.553 M 4059.1823 3326.553 L 4059.9023 3329.553 M 4060.6223 3326.553 L 4059.9023 3329.553 M 4061.5623 3326.553 L 4061.5623 3329.553 M 4061.5623 3326.553 L 4062.8523 3326.553 L 4063.2823 3326.693 L 4063.4223 3326.833 L 4063.5623 3327.123 L 4063.5623 3327.413 L 4063.4223 3327.693 L 4063.2823 3327.843 L 4062.8523 3327.983 M 4061.5623 3327.983 L 4062.8523 3327.983 L 4063.2823 3328.123 L 4063.4223 3328.273 L 4063.5623 3328.553 L 4063.5623 3328.983 L 4063.4223 3329.273 L 4063.2823 3329.413 L 4062.8523 3329.553 L 4061.5623 3329.553 M 4065.3723 3326.553 L 4065.0823 3326.693 L 4064.8023 3326.983 L 4064.6523 3327.263 L 4064.5123 3327.693 L 4064.5123 3328.413 L 4064.6523 3328.843 L 4064.8023 3329.123 L 4065.0823 3329.413 L 4065.3723 3329.553 L 4065.9423 3329.553 L 4066.2323 3329.413 L 4066.5123 3329.123 L 4066.6623 3328.843 L 4066.8023 3328.413 L 4066.8023 3327.693 L 4066.6623 3327.263 L 4066.5123 3326.983 L 4066.2323 3326.693 L 4065.9423 3326.553 L 4065.3723 3326.553 M 4067.7523 3326.553 L 4068.8923 3327.983 L 4068.8923 3329.553 M 4070.0423 3326.553 L 4068.8923 3327.983 M 4073.1923 3326.553 L 4073.1923 3329.553 M 4073.1923 3326.553 L 4074.4723 3326.553 L 4074.9023 3326.693 L 4075.0523 3326.833 L 4075.1923 3327.123 L 4075.1923 3327.413 L 4075.0523 3327.693 L 4074.9023 3327.843 L 4074.4723 3327.983 L 4073.1923 3327.983 M 4074.1923 3327.983 L 4075.1923 3329.553 M 4076.1323 3326.553 L 4076.1323 3329.553 M 4076.1323 3326.553 L 4078.0023 3326.553 M 4076.1323 3327.983 L 4077.2823 3327.983 M 4076.1323 3329.553 L 4078.0023 3329.553 M 4078.9423 3326.553 L 4078.9423 3329.553 M 4078.9423 3326.553 L 4080.0923 3329.553 M 4081.2323 3326.553 L 4080.0923 3329.553 M 4081.2323 3326.553 L 4081.2323 3329.553 M 4083.0423 3326.553 L 4082.7523 3326.693 L 4082.4623 3326.983 L 4082.3223 3327.263 L 4082.1823 3327.693 L 4082.1823 3328.413 L 4082.3223 3328.843 L 4082.4623 3329.123 L 4082.7523 3329.413 L 4083.0423 3329.553 L 4083.6123 3329.553 L 4083.8923 3329.413 L 4084.1823 3329.123 L 4084.3223 3328.843 L 4084.4723 3328.413 L 4084.4723 3327.693 L 4084.3223 3327.263 L 4084.1823 3326.983 L 4083.8923 3326.693 L 4083.6123 3326.553 L 4083.0423 3326.553 M 4086.4123 3326.553 L 4086.4123 3329.553 M 4085.4123 3326.553 L 4087.4223 3326.553 M 4088.3623 3326.553 L 4088.3623 3329.553 M 4088.3623 3326.553 L 4090.2223 3326.553 M 4088.3623 3327.983 L 4089.5123 3327.983 M 4088.3623 3329.553 L 4090.2223 3329.553 M 4051.4223 3334.703 L 4052.2823 3336.703 M 4053.1423 3334.703 L 4052.2823 3336.703 M 4054.9523 3333.703 L 4054.5223 3333.843 L 4054.2323 3334.273 L 4054.0923 3334.993 L 4054.0923 3335.423 L 4054.2323 3336.133 L 4054.5223 3336.563 L 4054.9523 3336.703 L 4055.2323 3336.703 L 4055.6623 3336.563 L 4055.9523 3336.133 L 4056.0923 3335.423 L 4056.0923 3334.993 L 4055.9523 3334.273 L 4055.6623 3333.843 L 4055.2323 3333.703 L 4054.9523 3333.703 M 4057.1823 3335.993 L 4057.0423 3336.133 L 4057.1823 3336.273 L 4057.3223 3336.133 L 4057.1823 3335.993 M 4058.2723 3334.273 L 4058.5523 3334.133 L 4058.9823 3333.703 L 4058.9823 3336.703 M 4062.1323 3335.423 L 4064.7123 3335.423 M 4069.0123 3333.703 L 4067.8623 3336.703 M 4069.0123 3333.703 L 4070.1523 3336.703 M 4068.2923 3335.703 L 4069.7223 3335.703 M 4071.1023 3334.703 L 4071.1023 3337.713 M 4071.1023 3335.133 L 4071.3823 3334.843 L 4071.6723 3334.703 L 4072.1023 3334.703 L 4072.3823 3334.843 L 4072.6723 3335.133 L 4072.8123 3335.563 L 4072.8123 3335.843 L 4072.6723 3336.273 L 4072.3823 3336.563 L 4072.1023 3336.703 L 4071.6723 3336.703 L 4071.3823 3336.563 L 4071.1023 3336.273 M 4073.7623 3334.703 L 4073.7623 3336.703 M 4073.7623 3335.563 L 4073.9023 3335.133 L 4074.1923 3334.843 L 4074.4723 3334.703 L 4074.9023 3334.703 M 4075.8523 3333.703 L 4075.9923 3333.843 L 4076.1323 3333.703 L 4075.9923 3333.553 L 4075.8523 3333.703 M 4075.9923 3334.703 L 4075.9923 3336.703 M 4077.0823 3333.703 L 4077.0823 3336.703 M 4080.3723 3334.413 L 4080.3723 3334.273 L 4080.5223 3333.983 L 4080.6623 3333.843 L 4080.9523 3333.703 L 4081.5223 3333.703 L 4081.8023 3333.843 L 4081.9523 3333.983 L 4082.0923 3334.273 L 4082.0923 3334.563 L 4081.9523 3334.843 L 4081.6623 3335.273 L 4080.2323 3336.703 L 4082.2323 3336.703 M 4084.0423 3333.703 L 4083.6123 3333.843 L 4083.3223 3334.273 L 4083.1823 3334.993 L 4083.1823 3335.423 L 4083.3223 3336.133 L 4083.6123 3336.563 L 4084.0423 3336.703 L 4084.3223 3336.703 L 4084.7523 3336.563 L 4085.0423 3336.133 L 4085.1823 3335.423 L 4085.1823 3334.993 L 4085.0423 3334.273 L 4084.7523 3333.843 L 4084.3223 3333.703 L 4084.0423 3333.703 M 4086.2723 3334.413 L 4086.2723 3334.273 L 4086.4123 3333.983 L 4086.5623 3333.843 L 4086.8423 3333.703 L 4087.4223 3333.703 L 4087.7023 3333.843 L 4087.8523 3333.983 L 4087.9923 3334.273 L 4087.9923 3334.563 L 4087.8523 3334.843 L 4087.5623 3335.273 L 4086.1323 3336.703 L 4088.1323 3336.703 M 4089.2223 3334.413 L 4089.2223 3334.273 L 4089.3623 3333.983 L 4089.5123 3333.843 L 4089.7923 3333.703 L 4090.3723 3333.703 L 4090.6523 3333.843 L 4090.7923 3333.983 L 4090.9423 3334.273 L 4090.9423 3334.563 L 4090.7923 3334.843 L 4090.5123 3335.273 L 4089.0823 3336.703 L 4091.0823 3336.703 M 4051.4223 3340.853 L 4051.4223 3343.853 M 4051.4223 3340.853 L 4052.7123 3340.853 L 4053.1423 3340.993 L 4053.2923 3341.133 L 4053.4323 3341.423 L 4053.4323 3341.713 L 4053.2923 3341.993 L 4053.1423 3342.143 L 4052.7123 3342.283 M 4051.4223 3342.283 L 4052.7123 3342.283 L 4053.1423 3342.423 L 4053.2923 3342.563 L 4053.4323 3342.853 L 4053.4323 3343.283 L 4053.2923 3343.573 L 4053.1423 3343.713 L 4052.7123 3343.853 L 4051.4223 3343.853 M 4054.5223 3341.853 L 4055.3823 3343.853 M 4056.2323 3341.853 L 4055.3823 3343.853 L 4055.0923 3344.433 L 4054.8023 3344.713 L 4054.5223 3344.863 L 4054.3723 3344.863 M 4060.8223 3340.853 L 4060.8223 3343.143 L 4060.6723 3343.573 L 4060.5323 3343.713 L 4060.2423 3343.853 L 4059.9623 3343.853 L 4059.6723 3343.713 L 4059.5323 3343.573 L 4059.3823 3343.143 L 4059.3823 3342.853 M 4062.6223 3340.853 L 4062.3323 3340.993 L 4062.0523 3341.283 L 4061.9023 3341.563 L 4061.7623 3341.993 L 4061.7623 3342.713 L 4061.9023 3343.143 L 4062.0523 3343.423 L 4062.3323 3343.713 L 4062.6223 3343.853 L 4063.1923 3343.853 L 4063.4823 3343.713 L 4063.7723 3343.423 L 4063.9123 3343.143 L 4064.0523 3342.713 L 4064.0523 3341.993 L 4063.9123 3341.563 L 4063.7723 3341.283 L 4063.4823 3340.993 L 4063.1923 3340.853 L 4062.6223 3340.853 M 4065.0023 3340.853 L 4065.0023 3342.993 L 4065.1423 3343.423 L 4065.4323 3343.713 L 4065.8623 3343.853 L 4066.1423 3343.853 L 4066.5723 3343.713 L 4066.8623 3343.423 L 4067.0023 3342.993 L 4067.0023 3340.853 M 4067.9523 3340.853 L 4067.9523 3343.853 M 4069.9523 3340.853 L 4067.9523 3342.853 M 4068.6623 3342.143 L 4069.9523 3343.853 M 4070.8923 3340.853 L 4070.8923 3343.853 M 4070.8923 3340.853 L 4072.7623 3340.853 M 4070.8923 3342.283 L 4072.0423 3342.283 M 4070.8923 3343.853 L 4072.7623 3343.853" fill="none"  stroke-width="0.3937"  /></g><g c_partid="part_pcbtext" c_etype="pinpart" c_origin="4063,3388.5" c_rotation="0" c_mirror="0" id="gge4652" locked="0" layerid="3" c_shapetype="group" ><path c_fontsize="1.9685" c_fontfamily="" c_text="SWCLK SWDIO  VCC  GND" d="M 4064.2531 3386.781 L 4064.0731 3386.601 L 4063.8031 3386.511 L 4063.4431 3386.511 L 4063.1831 3386.601 L 4063.0031 3386.781 L 4063.0031 3386.961 L 4063.0931 3387.141 L 4063.1831 3387.231 L 4063.3531 3387.321 L 4063.8931 3387.501 L 4064.0731 3387.591 L 4064.1631 3387.681 L 4064.2531 3387.851 L 4064.2531 3388.121 L 4064.0731 3388.301 L 4063.8031 3388.391 L 4063.4431 3388.391 L 4063.1831 3388.301 L 4063.0031 3388.121 M 4064.8431 3386.511 L 4065.2931 3388.391 M 4065.7331 3386.511 L 4065.2931 3388.391 M 4065.7331 3386.511 L 4066.1831 3388.391 M 4066.6331 3386.511 L 4066.1831 3388.391 M 4068.5631 3386.961 L 4068.4731 3386.781 L 4068.2931 3386.601 L 4068.1231 3386.511 L 4067.7631 3386.511 L 4067.5831 3386.601 L 4067.4031 3386.781 L 4067.3131 3386.961 L 4067.2231 3387.231 L 4067.2231 3387.681 L 4067.3131 3387.941 L 4067.4031 3388.121 L 4067.5831 3388.301 L 4067.7631 3388.391 L 4068.1231 3388.391 L 4068.2931 3388.301 L 4068.4731 3388.121 L 4068.5631 3387.941 M 4069.1531 3386.511 L 4069.1531 3388.391 M 4069.1531 3388.391 L 4070.2331 3388.391 M 4070.8231 3386.511 L 4070.8231 3388.391 M 4072.0731 3386.511 L 4070.8231 3387.771 M 4071.2631 3387.321 L 4072.0731 3388.391 M 4075.2931 3386.781 L 4075.1131 3386.601 L 4074.8431 3386.511 L 4074.4931 3386.511 L 4074.2231 3386.601 L 4074.0431 3386.781 L 4074.0431 3386.961 L 4074.1331 3387.141 L 4074.2231 3387.231 L 4074.4031 3387.321 L 4074.9331 3387.501 L 4075.1131 3387.591 L 4075.2031 3387.681 L 4075.2931 3387.851 L 4075.2931 3388.121 L 4075.1131 3388.301 L 4074.8431 3388.391 L 4074.4931 3388.391 L 4074.2231 3388.301 L 4074.0431 3388.121 M 4075.8831 3386.511 L 4076.3331 3388.391 M 4076.7831 3386.511 L 4076.3331 3388.391 M 4076.7831 3386.511 L 4077.2231 3388.391 M 4077.6731 3386.511 L 4077.2231 3388.391 M 4078.2631 3386.511 L 4078.2631 3388.391 M 4078.2631 3386.511 L 4078.8931 3386.511 L 4079.1631 3386.601 L 4079.3431 3386.781 L 4079.4231 3386.961 L 4079.5131 3387.231 L 4079.5131 3387.681 L 4079.4231 3387.941 L 4079.3431 3388.121 L 4079.1631 3388.301 L 4078.8931 3388.391 L 4078.2631 3388.391 M 4080.1031 3386.511 L 4080.1031 3388.391 M 4081.2331 3386.511 L 4081.0531 3386.601 L 4080.8731 3386.781 L 4080.7931 3386.961 L 4080.7031 3387.231 L 4080.7031 3387.681 L 4080.7931 3387.941 L 4080.8731 3388.121 L 4081.0531 3388.301 L 4081.2331 3388.391 L 4081.5931 3388.391 L 4081.7731 3388.301 L 4081.9531 3388.121 L 4082.0431 3387.941 L 4082.1331 3387.681 L 4082.1331 3387.231 L 4082.0431 3386.961 L 4081.9531 3386.781 L 4081.7731 3386.601 L 4081.5931 3386.511 L 4081.2331 3386.511 M 4085.4731 3386.511 L 4086.1931 3388.391 M 4086.9131 3386.511 L 4086.1931 3388.391 M 4088.8431 3386.961 L 4088.7531 3386.781 L 4088.5731 3386.601 L 4088.3931 3386.511 L 4088.0331 3386.511 L 4087.8531 3386.601 L 4087.6731 3386.781 L 4087.5931 3386.961 L 4087.5031 3387.231 L 4087.5031 3387.681 L 4087.5931 3387.941 L 4087.6731 3388.121 L 4087.8531 3388.301 L 4088.0331 3388.391 L 4088.3931 3388.391 L 4088.5731 3388.301 L 4088.7531 3388.121 L 4088.8431 3387.941 M 4090.7731 3386.961 L 4090.6831 3386.781 L 4090.5031 3386.601 L 4090.3231 3386.511 L 4089.9731 3386.511 L 4089.7931 3386.601 L 4089.6131 3386.781 L 4089.5231 3386.961 L 4089.4331 3387.231 L 4089.4331 3387.681 L 4089.5231 3387.941 L 4089.6131 3388.121 L 4089.7931 3388.301 L 4089.9731 3388.391 L 4090.3231 3388.391 L 4090.5031 3388.301 L 4090.6831 3388.121 L 4090.7731 3387.941 M 4095.4631 3386.961 L 4095.3731 3386.781 L 4095.1931 3386.601 L 4095.0131 3386.511 L 4094.6531 3386.511 L 4094.4831 3386.601 L 4094.3031 3386.781 L 4094.2131 3386.961 L 4094.1231 3387.231 L 4094.1231 3387.681 L 4094.2131 3387.941 L 4094.3031 3388.121 L 4094.4831 3388.301 L 4094.6531 3388.391 L 4095.0131 3388.391 L 4095.1931 3388.301 L 4095.3731 3388.121 L 4095.4631 3387.941 L 4095.4631 3387.681 M 4095.0131 3387.681 L 4095.4631 3387.681 M 4096.0531 3386.511 L 4096.0531 3388.391 M 4096.0531 3386.511 L 4097.3031 3388.391 M 4097.3031 3386.511 L 4097.3031 3388.391 M 4097.8931 3386.511 L 4097.8931 3388.391 M 4097.8931 3386.511 L 4098.5231 3386.511 L 4098.7931 3386.601 L 4098.9731 3386.781 L 4099.0631 3386.961 L 4099.1531 3387.231 L 4099.1531 3387.681 L 4099.0631 3387.941 L 4098.9731 3388.121 L 4098.7931 3388.301 L 4098.5231 3388.391 L 4097.8931 3388.391" fill="none"  stroke-width="0.4055"  /></g><g c_partid="part_pcbtext" c_etype="pinpart" c_origin="4131,3357.5" c_rotation="0" c_mirror="0" id="gge4676" locked="0" layerid="3" c_shapetype="group" ><path c_fontsize="3.1496" c_fontfamily="" c_text="BC805M" d="M 4131 3354.32 L 4131 3357.33 M 4131 3354.32 L 4132.29 3354.32 L 4132.72 3354.46 L 4132.86 3354.61 L 4133 3354.89 L 4133 3355.18 L 4132.86 3355.47 L 4132.72 3355.61 L 4132.29 3355.75 M 4131 3355.75 L 4132.29 3355.75 L 4132.72 3355.9 L 4132.86 3356.04 L 4133 3356.33 L 4133 3356.76 L 4132.86 3357.04 L 4132.72 3357.19 L 4132.29 3357.33 L 4131 3357.33 M 4136.1 3355.04 L 4135.95 3354.75 L 4135.67 3354.46 L 4135.38 3354.32 L 4134.81 3354.32 L 4134.52 3354.46 L 4134.24 3354.75 L 4134.09 3355.04 L 4133.95 3355.47 L 4133.95 3356.18 L 4134.09 3356.61 L 4134.24 3356.9 L 4134.52 3357.19 L 4134.81 3357.33 L 4135.38 3357.33 L 4135.67 3357.19 L 4135.95 3356.9 L 4136.1 3356.61 M 4137.76 3354.32 L 4137.33 3354.46 L 4137.18 3354.75 L 4137.18 3355.04 L 4137.33 3355.32 L 4137.61 3355.47 L 4138.19 3355.61 L 4138.62 3355.75 L 4138.9 3356.04 L 4139.05 3356.33 L 4139.05 3356.76 L 4138.9 3357.04 L 4138.76 3357.19 L 4138.33 3357.33 L 4137.76 3357.33 L 4137.33 3357.19 L 4137.18 3357.04 L 4137.04 3356.76 L 4137.04 3356.33 L 4137.18 3356.04 L 4137.47 3355.75 L 4137.9 3355.61 L 4138.47 3355.47 L 4138.76 3355.32 L 4138.9 3355.04 L 4138.9 3354.75 L 4138.76 3354.46 L 4138.33 3354.32 L 4137.76 3354.32 M 4140.85 3354.32 L 4140.42 3354.46 L 4140.13 3354.89 L 4139.99 3355.61 L 4139.99 3356.04 L 4140.13 3356.76 L 4140.42 3357.19 L 4140.85 3357.33 L 4141.14 3357.33 L 4141.57 3357.19 L 4141.85 3356.76 L 4141.99 3356.04 L 4141.99 3355.61 L 4141.85 3354.89 L 4141.57 3354.46 L 4141.14 3354.32 L 4140.85 3354.32 M 4144.66 3354.32 L 4143.23 3354.32 L 4143.08 3355.61 L 4143.23 3355.47 L 4143.66 3355.32 L 4144.09 3355.32 L 4144.51 3355.47 L 4144.8 3355.75 L 4144.94 3356.18 L 4144.94 3356.47 L 4144.8 3356.9 L 4144.51 3357.19 L 4144.09 3357.33 L 4143.66 3357.33 L 4143.23 3357.19 L 4143.08 3357.04 L 4142.94 3356.76 M 4145.89 3354.32 L 4145.89 3357.33 M 4145.89 3354.32 L 4147.03 3357.33 M 4148.18 3354.32 L 4147.03 3357.33 M 4148.18 3354.32 L 4148.18 3357.33" fill="none"  stroke-width="0.3937"  /></g><g c_partid="part_pcbtext" c_etype="" c_origin="4108.5,3311" c_rotation="0" c_mirror="0" id="gge3608" locked="0" layerid="3" c_shapetype="group" display="none"><path c_fontsize="4.5" c_fontfamily="" c_text="SolderPad" d="M 4111.36 3307.07L4110.95 3306.66 L4110.34 3306.46 L4109.52 3306.46 L4108.91 3306.66 L4108.5 3307.07 L4108.5 3307.48 L4108.7 3307.89 L4108.91 3308.1 L4109.32 3308.3 L4110.55 3308.71 L4110.95 3308.91 L4111.16 3309.12 L4111.36 3309.53 L4111.36 3310.14 L4110.95 3310.55 L4110.34 3310.75 L4109.52 3310.75 L4108.91 3310.55 L4108.5 3310.14 M 4113.74 3307.89L4113.33 3308.1 L4112.92 3308.5 L4112.71 3309.12 L4112.71 3309.53 L4112.92 3310.14 L4113.33 3310.55 L4113.74 3310.75 L4114.35 3310.75 L4114.76 3310.55 L4115.17 3310.14 L4115.37 3309.53 L4115.37 3309.12 L4115.17 3308.5 L4114.76 3308.1 L4114.35 3307.89 L4113.74 3307.89 M 4116.72 3306.46L4116.72 3310.75 M 4120.53 3306.46L4120.53 3310.75 M 4120.53 3308.5L4120.12 3308.1 L4119.71 3307.89 L4119.1 3307.89 L4118.69 3308.1 L4118.28 3308.5 L4118.07 3309.12 L4118.07 3309.53 L4118.28 3310.14 L4118.69 3310.55 L4119.1 3310.75 L4119.71 3310.75 L4120.12 3310.55 L4120.53 3310.14 M 4121.88 3309.12L4124.33 3309.12 L4124.33 3308.71 L4124.13 3308.3 L4123.92 3308.1 L4123.51 3307.89 L4122.9 3307.89 L4122.49 3308.1 L4122.08 3308.5 L4121.88 3309.12 L4121.88 3309.53 L4122.08 3310.14 L4122.49 3310.55 L4122.9 3310.75 L4123.51 3310.75 L4123.92 3310.55 L4124.33 3310.14 M 4125.68 3307.89L4125.68 3310.75 M 4125.68 3309.12L4125.89 3308.5 L4126.3 3308.1 L4126.7 3307.89 L4127.32 3307.89 M 4128.67 3306.46L4128.67 3310.75 M 4128.67 3306.46L4130.51 3306.46 L4131.12 3306.66 L4131.33 3306.87 L4131.53 3307.28 L4131.53 3307.89 L4131.33 3308.3 L4131.12 3308.5 L4130.51 3308.71 L4128.67 3308.71 M 4135.34 3307.89L4135.34 3310.75 M 4135.34 3308.5L4134.93 3308.1 L4134.52 3307.89 L4133.9 3307.89 L4133.5 3308.1 L4133.09 3308.5 L4132.88 3309.12 L4132.88 3309.53 L4133.09 3310.14 L4133.5 3310.55 L4133.9 3310.75 L4134.52 3310.75 L4134.93 3310.55 L4135.34 3310.14 M 4139.14 3306.46L4139.14 3310.75 M 4139.14 3308.5L4138.73 3308.1 L4138.32 3307.89 L4137.71 3307.89 L4137.3 3308.1 L4136.89 3308.5 L4136.69 3309.12 L4136.69 3309.53 L4136.89 3310.14 L4137.3 3310.55 L4137.71 3310.75 L4138.32 3310.75 L4138.73 3310.55 L4139.14 3310.14 " fill="none"  stroke-width="0.6" c_note="note_name" /></g><g c_partid="part_pcbtext" c_etype="" c_origin="4095,3345.5" c_rotation="0" c_mirror="0" id="gge3614" locked="0" layerid="3" c_shapetype="group" ><path c_fontsize="4.5" c_fontfamily="" c_text="BAT+" d="M 4095 3340.96L4095 3345.25 M 4095 3340.96L4096.84 3340.96 L4097.45 3341.16 L4097.66 3341.37 L4097.86 3341.78 L4097.86 3342.19 L4097.66 3342.6 L4097.45 3342.8 L4096.84 3343 M 4095 3343L4096.84 3343 L4097.45 3343.21 L4097.66 3343.41 L4097.86 3343.82 L4097.86 3344.44 L4097.66 3344.85 L4097.45 3345.05 L4096.84 3345.25 L4095 3345.25 M 4100.85 3340.96L4099.21 3345.25 M 4100.85 3340.96L4102.49 3345.25 M 4099.83 3343.82L4101.87 3343.82 M 4105.27 3340.96L4105.27 3345.25 M 4103.84 3340.96L4106.7 3340.96 M 4109.89 3341.57L4109.89 3345.25 M 4108.05 3343.41L4111.73 3343.41 " fill="none"  stroke-width="0.6" c_note="note_pre" /></g><g c_partid="part_pcbtext" c_etype="" c_origin="4073.5,3351" c_rotation="0" c_mirror="0" id="gge3575" locked="0" layerid="3" c_shapetype="group" display="none"><path c_fontsize="4.5" c_fontfamily="" c_text="SolderPad" d="M 4076.36 3347.07L4075.95 3346.66 L4075.34 3346.46 L4074.52 3346.46 L4073.91 3346.66 L4073.5 3347.07 L4073.5 3347.48 L4073.7 3347.89 L4073.91 3348.1 L4074.32 3348.3 L4075.55 3348.71 L4075.95 3348.91 L4076.16 3349.12 L4076.36 3349.53 L4076.36 3350.14 L4075.95 3350.55 L4075.34 3350.75 L4074.52 3350.75 L4073.91 3350.55 L4073.5 3350.14 M 4078.74 3347.89L4078.33 3348.1 L4077.92 3348.5 L4077.71 3349.12 L4077.71 3349.53 L4077.92 3350.14 L4078.33 3350.55 L4078.74 3350.75 L4079.35 3350.75 L4079.76 3350.55 L4080.17 3350.14 L4080.37 3349.53 L4080.37 3349.12 L4080.17 3348.5 L4079.76 3348.1 L4079.35 3347.89 L4078.74 3347.89 M 4081.72 3346.46L4081.72 3350.75 M 4085.53 3346.46L4085.53 3350.75 M 4085.53 3348.5L4085.12 3348.1 L4084.71 3347.89 L4084.1 3347.89 L4083.69 3348.1 L4083.28 3348.5 L4083.07 3349.12 L4083.07 3349.53 L4083.28 3350.14 L4083.69 3350.55 L4084.1 3350.75 L4084.71 3350.75 L4085.12 3350.55 L4085.53 3350.14 M 4086.88 3349.12L4089.33 3349.12 L4089.33 3348.71 L4089.13 3348.3 L4088.92 3348.1 L4088.51 3347.89 L4087.9 3347.89 L4087.49 3348.1 L4087.08 3348.5 L4086.88 3349.12 L4086.88 3349.53 L4087.08 3350.14 L4087.49 3350.55 L4087.9 3350.75 L4088.51 3350.75 L4088.92 3350.55 L4089.33 3350.14 M 4090.68 3347.89L4090.68 3350.75 M 4090.68 3349.12L4090.89 3348.5 L4091.3 3348.1 L4091.7 3347.89 L4092.32 3347.89 M 4093.67 3346.46L4093.67 3350.75 M 4093.67 3346.46L4095.51 3346.46 L4096.12 3346.66 L4096.33 3346.87 L4096.53 3347.28 L4096.53 3347.89 L4096.33 3348.3 L4096.12 3348.5 L4095.51 3348.71 L4093.67 3348.71 M 4100.34 3347.89L4100.34 3350.75 M 4100.34 3348.5L4099.93 3348.1 L4099.52 3347.89 L4098.9 3347.89 L4098.5 3348.1 L4098.09 3348.5 L4097.88 3349.12 L4097.88 3349.53 L4098.09 3350.14 L4098.5 3350.55 L4098.9 3350.75 L4099.52 3350.75 L4099.93 3350.55 L4100.34 3350.14 M 4104.14 3346.46L4104.14 3350.75 M 4104.14 3348.5L4103.73 3348.1 L4103.32 3347.89 L4102.71 3347.89 L4102.3 3348.1 L4101.89 3348.5 L4101.69 3349.12 L4101.69 3349.53 L4101.89 3350.14 L4102.3 3350.55 L4102.71 3350.75 L4103.32 3350.75 L4103.73 3350.55 L4104.14 3350.14 " fill="none"  stroke-width="0.6" c_note="note_name" /></g><g c_partid="part_pcbtext" c_etype="" c_origin="4075.5,3354.5" c_rotation="0" c_mirror="0" id="gge3581" locked="0" layerid="3" c_shapetype="group" ><path c_fontsize="4.5" c_fontfamily="" c_text="BAT-" d="M 4075.5 3349.96L4075.5 3354.25 M 4075.5 3349.96L4077.34 3349.96 L4077.95 3350.16 L4078.16 3350.37 L4078.36 3350.78 L4078.36 3351.19 L4078.16 3351.6 L4077.95 3351.8 L4077.34 3352 M 4075.5 3352L4077.34 3352 L4077.95 3352.21 L4078.16 3352.41 L4078.36 3352.82 L4078.36 3353.44 L4078.16 3353.85 L4077.95 3354.05 L4077.34 3354.25 L4075.5 3354.25 M 4081.35 3349.96L4079.71 3354.25 M 4081.35 3349.96L4082.99 3354.25 M 4080.33 3352.82L4082.37 3352.82 M 4085.77 3349.96L4085.77 3354.25 M 4084.34 3349.96L4087.2 3349.96 M 4088.55 3352.41L4092.23 3352.41 " fill="none"  stroke-width="0.6" c_note="note_pre" /></g><g c_partid="part_pcbtext" c_etype="" c_origin="4139,3411.524" c_rotation="180" c_mirror="0" id="gge402" locked="0" layerid="3" c_shapetype="group" display="none"><path c_fontsize="4.5" c_fontfamily="" c_text="FANSTEL BC805M" d="M 4138.9998 3416.0682 L 4138.9998 3411.7682 M 4138.9998 3416.0682 L 4136.3398 3416.0682 M 4138.9998 3414.0182 L 4137.3598 3414.0182 M 4133.3498 3416.0682 L 4134.9898 3411.7682 M 4133.3498 3416.0682 L 4131.7198 3411.7682 M 4134.3798 3413.1982 L 4132.3298 3413.1982 M 4130.3698 3416.0682 L 4130.3698 3411.7682 M 4130.3698 3416.0682 L 4127.4998 3411.7682 M 4127.4998 3416.0682 L 4127.4998 3411.7682 M 4123.2898 3415.4482 L 4123.6998 3415.8582 L 4124.3098 3416.0682 L 4125.1298 3416.0682 L 4125.7498 3415.8582 L 4126.1498 3415.4482 L 4126.1498 3415.0382 L 4125.9498 3414.6382 L 4125.7498 3414.4282 L 4125.3398 3414.2282 L 4124.1098 3413.8182 L 4123.6998 3413.6082 L 4123.4998 3413.4082 L 4123.2898 3412.9982 L 4123.2898 3412.3882 L 4123.6998 3411.9782 L 4124.3098 3411.7682 L 4125.1298 3411.7682 L 4125.7498 3411.9782 L 4126.1498 3412.3882 M 4120.5098 3416.0682 L 4120.5098 3411.7682 M 4121.9398 3416.0682 L 4119.0798 3416.0682 M 4117.7298 3416.0682 L 4117.7298 3411.7682 M 4117.7298 3416.0682 L 4115.0698 3416.0682 M 4117.7298 3414.0182 L 4116.0898 3414.0182 M 4117.7298 3411.7682 L 4115.0698 3411.7682 M 4113.7198 3416.0682 L 4113.7198 3411.7682 M 4113.7198 3411.7682 L 4111.2598 3411.7682 M 4106.7598 3416.0682 L 4106.7598 3411.7682 M 4106.7598 3416.0682 L 4104.9198 3416.0682 L 4104.3098 3415.8582 L 4104.0998 3415.6582 L 4103.8998 3415.2482 L 4103.8998 3414.8382 L 4104.0998 3414.4282 L 4104.3098 3414.2282 L 4104.9198 3414.0182 M 4106.7598 3414.0182 L 4104.9198 3414.0182 L 4104.3098 3413.8182 L 4104.0998 3413.6082 L 4103.8998 3413.1982 L 4103.8998 3412.5882 L 4104.0998 3412.1782 L 4104.3098 3411.9782 L 4104.9198 3411.7682 L 4106.7598 3411.7682 M 4099.4798 3415.0382 L 4099.6898 3415.4482 L 4100.0998 3415.8582 L 4100.4998 3416.0682 L 4101.3198 3416.0682 L 4101.7298 3415.8582 L 4102.1398 3415.4482 L 4102.3498 3415.0382 L 4102.5498 3414.4282 L 4102.5498 3413.4082 L 4102.3498 3412.7882 L 4102.1398 3412.3882 L 4101.7298 3411.9782 L 4101.3198 3411.7682 L 4100.4998 3411.7682 L 4100.0998 3411.9782 L 4099.6898 3412.3882 L 4099.4798 3412.7882 M 4097.1098 3416.0682 L 4097.7198 3415.8582 L 4097.9298 3415.4482 L 4097.9298 3415.0382 L 4097.7198 3414.6382 L 4097.3098 3414.4282 L 4096.4998 3414.2282 L 4095.8798 3414.0182 L 4095.4698 3413.6082 L 4095.2698 3413.1982 L 4095.2698 3412.5882 L 4095.4698 3412.1782 L 4095.6798 3411.9782 L 4096.2898 3411.7682 L 4097.1098 3411.7682 L 4097.7198 3411.9782 L 4097.9298 3412.1782 L 4098.1298 3412.5882 L 4098.1298 3413.1982 L 4097.9298 3413.6082 L 4097.5198 3414.0182 L 4096.8998 3414.2282 L 4096.0898 3414.4282 L 4095.6798 3414.6382 L 4095.4698 3415.0382 L 4095.4698 3415.4482 L 4095.6798 3415.8582 L 4096.2898 3416.0682 L 4097.1098 3416.0682 M 4092.6898 3416.0682 L 4093.2998 3415.8582 L 4093.7098 3415.2482 L 4093.9198 3414.2282 L 4093.9198 3413.6082 L 4093.7098 3412.5882 L 4093.2998 3411.9782 L 4092.6898 3411.7682 L 4092.2798 3411.7682 L 4091.6698 3411.9782 L 4091.2598 3412.5882 L 4091.0498 3413.6082 L 4091.0498 3414.2282 L 4091.2598 3415.2482 L 4091.6698 3415.8582 L 4092.2798 3416.0682 L 4092.6898 3416.0682 M 4087.2498 3416.0682 L 4089.2998 3416.0682 L 4089.4998 3414.2282 L 4089.2998 3414.4282 L 4088.6798 3414.6382 L 4088.0698 3414.6382 L 4087.4498 3414.4282 L 4087.0498 3414.0182 L 4086.8398 3413.4082 L 4086.8398 3412.9982 L 4087.0498 3412.3882 L 4087.4498 3411.9782 L 4088.0698 3411.7682 L 4088.6798 3411.7682 L 4089.2998 3411.9782 L 4089.4998 3412.1782 L 4089.6998 3412.5882 M 4085.4898 3416.0682 L 4085.4898 3411.7682 M 4085.4898 3416.0682 L 4083.8498 3411.7682 M 4082.2198 3416.0682 L 4083.8498 3411.7682 M 4082.2198 3416.0682 L 4082.2198 3411.7682" fill="none"  stroke-width="0.6" c_note="note_name" /></g><g c_partid="part_pcbtext" c_etype="" c_origin="4139,3404.524" c_rotation="180" c_mirror="0" id="gge408" locked="0" layerid="3" c_shapetype="group" display="none"><path c_fontsize="4.5" c_fontfamily="" c_text="BC805M" d="M 4138.9998 3409.0682 L 4138.9998 3404.7682 M 4138.9998 3409.0682 L 4137.1598 3409.0682 L 4136.5498 3408.8582 L 4136.3398 3408.6582 L 4136.1398 3408.2482 L 4136.1398 3407.8382 L 4136.3398 3407.4282 L 4136.5498 3407.2282 L 4137.1598 3407.0182 M 4138.9998 3407.0182 L 4137.1598 3407.0182 L 4136.5498 3406.8182 L 4136.3398 3406.6082 L 4136.1398 3406.1982 L 4136.1398 3405.5882 L 4136.3398 3405.1782 L 4136.5498 3404.9782 L 4137.1598 3404.7682 L 4138.9998 3404.7682 M 4131.7198 3408.0382 L 4131.9198 3408.4482 L 4132.3298 3408.8582 L 4132.7398 3409.0682 L 4133.5598 3409.0682 L 4133.9698 3408.8582 L 4134.3798 3408.4482 L 4134.5798 3408.0382 L 4134.7898 3407.4282 L 4134.7898 3406.4082 L 4134.5798 3405.7882 L 4134.3798 3405.3882 L 4133.9698 3404.9782 L 4133.5598 3404.7682 L 4132.7398 3404.7682 L 4132.3298 3404.9782 L 4131.9198 3405.3882 L 4131.7198 3405.7882 M 4129.3498 3409.0682 L 4129.9598 3408.8582 L 4130.1598 3408.4482 L 4130.1598 3408.0382 L 4129.9598 3407.6382 L 4129.5498 3407.4282 L 4128.7298 3407.2282 L 4128.1198 3407.0182 L 4127.7098 3406.6082 L 4127.4998 3406.1982 L 4127.4998 3405.5882 L 4127.7098 3405.1782 L 4127.9098 3404.9782 L 4128.5298 3404.7682 L 4129.3498 3404.7682 L 4129.9598 3404.9782 L 4130.1598 3405.1782 L 4130.3698 3405.5882 L 4130.3698 3406.1982 L 4130.1598 3406.6082 L 4129.7498 3407.0182 L 4129.1398 3407.2282 L 4128.3198 3407.4282 L 4127.9098 3407.6382 L 4127.7098 3408.0382 L 4127.7098 3408.4482 L 4127.9098 3408.8582 L 4128.5298 3409.0682 L 4129.3498 3409.0682 M 4124.9298 3409.0682 L 4125.5398 3408.8582 L 4125.9498 3408.2482 L 4126.1498 3407.2282 L 4126.1498 3406.6082 L 4125.9498 3405.5882 L 4125.5398 3404.9782 L 4124.9298 3404.7682 L 4124.5198 3404.7682 L 4123.8998 3404.9782 L 4123.4998 3405.5882 L 4123.2898 3406.6082 L 4123.2898 3407.2282 L 4123.4998 3408.2482 L 4123.8998 3408.8582 L 4124.5198 3409.0682 L 4124.9298 3409.0682 M 4119.4898 3409.0682 L 4121.5298 3409.0682 L 4121.7398 3407.2282 L 4121.5298 3407.4282 L 4120.9198 3407.6382 L 4120.2998 3407.6382 L 4119.6898 3407.4282 L 4119.2798 3407.0182 L 4119.0798 3406.4082 L 4119.0798 3405.9982 L 4119.2798 3405.3882 L 4119.6898 3404.9782 L 4120.2998 3404.7682 L 4120.9198 3404.7682 L 4121.5298 3404.9782 L 4121.7398 3405.1782 L 4121.9398 3405.5882 M 4117.7298 3409.0682 L 4117.7298 3404.7682 M 4117.7298 3409.0682 L 4116.0898 3404.7682 M 4114.4498 3409.0682 L 4116.0898 3404.7682 M 4114.4498 3409.0682 L 4114.4498 3404.7682" fill="none"  stroke-width="0.6" c_note="note_pre" /></g><g c_partid="part_pcbtext" c_etype="" c_origin="4081,3382" c_rotation="0" c_mirror="0" id="gge2077" locked="0" layerid="3" c_shapetype="group" display="none"><path c_fontsize="4.5" c_fontfamily="" c_text="Header-Male-2.54_1x4_C59481" d="M 4081 3377.46L4081 3381.75 M 4083.86 3377.46L4083.86 3381.75 M 4081 3379.5L4083.86 3379.5 M 4085.21 3380.12L4087.67 3380.12 L4087.67 3379.71 L4087.46 3379.3 L4087.26 3379.1 L4086.85 3378.89 L4086.24 3378.89 L4085.83 3379.1 L4085.42 3379.5 L4085.21 3380.12 L4085.21 3380.53 L4085.42 3381.14 L4085.83 3381.55 L4086.24 3381.75 L4086.85 3381.75 L4087.26 3381.55 L4087.67 3381.14 M 4091.47 3378.89L4091.47 3381.75 M 4091.47 3379.5L4091.06 3379.1 L4090.65 3378.89 L4090.04 3378.89 L4089.63 3379.1 L4089.22 3379.5 L4089.02 3380.12 L4089.02 3380.53 L4089.22 3381.14 L4089.63 3381.55 L4090.04 3381.75 L4090.65 3381.75 L4091.06 3381.55 L4091.47 3381.14 M 4095.28 3377.46L4095.28 3381.75 M 4095.28 3379.5L4094.87 3379.1 L4094.46 3378.89 L4093.85 3378.89 L4093.44 3379.1 L4093.03 3379.5 L4092.82 3380.12 L4092.82 3380.53 L4093.03 3381.14 L4093.44 3381.55 L4093.85 3381.75 L4094.46 3381.75 L4094.87 3381.55 L4095.28 3381.14 M 4096.63 3380.12L4099.08 3380.12 L4099.08 3379.71 L4098.88 3379.3 L4098.67 3379.1 L4098.26 3378.89 L4097.65 3378.89 L4097.24 3379.1 L4096.83 3379.5 L4096.63 3380.12 L4096.63 3380.53 L4096.83 3381.14 L4097.24 3381.55 L4097.65 3381.75 L4098.26 3381.75 L4098.67 3381.55 L4099.08 3381.14 M 4100.43 3378.89L4100.43 3381.75 M 4100.43 3380.12L4100.64 3379.5 L4101.05 3379.1 L4101.45 3378.89 L4102.07 3378.89 M 4103.42 3379.91L4107.1 3379.91 M 4108.45 3377.46L4108.45 3381.75 M 4108.45 3377.46L4110.09 3381.75 M 4111.72 3377.46L4110.09 3381.75 M 4111.72 3377.46L4111.72 3381.75 M 4115.53 3378.89L4115.53 3381.75 M 4115.53 3379.5L4115.12 3379.1 L4114.71 3378.89 L4114.1 3378.89 L4113.69 3379.1 L4113.28 3379.5 L4113.07 3380.12 L4113.07 3380.53 L4113.28 3381.14 L4113.69 3381.55 L4114.1 3381.75 L4114.71 3381.75 L4115.12 3381.55 L4115.53 3381.14 M 4116.88 3377.46L4116.88 3381.75 M 4118.23 3380.12L4120.68 3380.12 L4120.68 3379.71 L4120.48 3379.3 L4120.27 3379.1 L4119.86 3378.89 L4119.25 3378.89 L4118.84 3379.1 L4118.43 3379.5 L4118.23 3380.12 L4118.23 3380.53 L4118.43 3381.14 L4118.84 3381.55 L4119.25 3381.75 L4119.86 3381.75 L4120.27 3381.55 L4120.68 3381.14 M 4122.03 3379.91L4125.71 3379.91 M 4127.27 3378.48L4127.27 3378.28 L4127.47 3377.87 L4127.68 3377.66 L4128.09 3377.46 L4128.9 3377.46 L4129.31 3377.66 L4129.52 3377.87 L4129.72 3378.28 L4129.72 3378.69 L4129.52 3379.1 L4129.11 3379.71 L4127.06 3381.75 L4129.93 3381.75 M 4131.48 3380.73L4131.28 3380.94 L4131.48 3381.14 L4131.69 3380.94 L4131.48 3380.73 M 4135.49 3377.46L4133.45 3377.46 L4133.24 3379.3 L4133.45 3379.1 L4134.06 3378.89 L4134.67 3378.89 L4135.29 3379.1 L4135.7 3379.5 L4135.9 3380.12 L4135.9 3380.53 L4135.7 3381.14 L4135.29 3381.55 L4134.67 3381.75 L4134.06 3381.75 L4133.45 3381.55 L4133.24 3381.35 L4133.04 3380.94 M 4139.3 3377.46L4137.25 3380.32 L4140.32 3380.32 M 4139.3 3377.46L4139.3 3381.75 M 4141.67 3383.19L4145.35 3383.19 M 4146.7 3378.28L4147.11 3378.07 L4147.72 3377.46 L4147.72 3381.75 M 4149.07 3378.89L4151.32 3381.75 M 4151.32 3378.89L4149.07 3381.75 M 4154.72 3377.46L4152.67 3380.32 L4155.74 3380.32 M 4154.72 3377.46L4154.72 3381.75 M 4157.09 3383.19L4160.77 3383.19 M 4165.19 3378.48L4164.99 3378.07 L4164.58 3377.66 L4164.17 3377.46 L4163.35 3377.46 L4162.94 3377.66 L4162.53 3378.07 L4162.33 3378.48 L4162.12 3379.1 L4162.12 3380.12 L4162.33 3380.73 L4162.53 3381.14 L4162.94 3381.55 L4163.35 3381.75 L4164.17 3381.75 L4164.58 3381.55 L4164.99 3381.14 L4165.19 3380.73 M 4169 3377.46L4166.95 3377.46 L4166.75 3379.3 L4166.95 3379.1 L4167.56 3378.89 L4168.18 3378.89 L4168.79 3379.1 L4169.2 3379.5 L4169.4 3380.12 L4169.4 3380.53 L4169.2 3381.14 L4168.79 3381.55 L4168.18 3381.75 L4167.56 3381.75 L4166.95 3381.55 L4166.75 3381.35 L4166.54 3380.94 M 4173.41 3378.89L4173.21 3379.5 L4172.8 3379.91 L4172.19 3380.12 L4171.98 3380.12 L4171.37 3379.91 L4170.96 3379.5 L4170.75 3378.89 L4170.75 3378.69 L4170.96 3378.07 L4171.37 3377.66 L4171.98 3377.46 L4172.19 3377.46 L4172.8 3377.66 L4173.21 3378.07 L4173.41 3378.89 L4173.41 3379.91 L4173.21 3380.94 L4172.8 3381.55 L4172.19 3381.75 L4171.78 3381.75 L4171.16 3381.55 L4170.96 3381.14 M 4176.81 3377.46L4174.76 3380.32 L4177.83 3380.32 M 4176.81 3377.46L4176.81 3381.75 M 4180.2 3377.46L4179.59 3377.66 L4179.39 3378.07 L4179.39 3378.48 L4179.59 3378.89 L4180 3379.1 L4180.82 3379.3 L4181.43 3379.5 L4181.84 3379.91 L4182.05 3380.32 L4182.05 3380.94 L4181.84 3381.35 L4181.64 3381.55 L4181.02 3381.75 L4180.2 3381.75 L4179.59 3381.55 L4179.39 3381.35 L4179.18 3380.94 L4179.18 3380.32 L4179.39 3379.91 L4179.8 3379.5 L4180.41 3379.3 L4181.23 3379.1 L4181.64 3378.89 L4181.84 3378.48 L4181.84 3378.07 L4181.64 3377.66 L4181.02 3377.46 L4180.2 3377.46 M 4183.4 3378.28L4183.8 3378.07 L4184.42 3377.46 L4184.42 3381.75 " fill="none"  stroke-width="0.6" c_note="note_name" /></g><g c_partid="part_pcbtext" c_etype="" c_origin="4104.142,3397.743" c_rotation="0" c_mirror="0" id="gge2083" locked="0" layerid="3" c_shapetype="group" display="none"><path c_fontsize="4.5" c_fontfamily="" c_text="SWCLK-SWDIO-VCC-GND" d="M 4107.01 3393.82L4106.6 3393.41 L4105.98 3393.2 L4105.17 3393.2 L4104.55 3393.41 L4104.14 3393.82 L4104.14 3394.22 L4104.35 3394.63 L4104.55 3394.84 L4104.96 3395.04 L4106.19 3395.45 L4106.6 3395.66 L4106.8 3395.86 L4107.01 3396.27 L4107.01 3396.88 L4106.6 3397.29 L4105.98 3397.5 L4105.17 3397.5 L4104.55 3397.29 L4104.14 3396.88 M 4108.36 3393.2L4109.38 3397.5 M 4110.4 3393.2L4109.38 3397.5 M 4110.4 3393.2L4111.42 3397.5 M 4112.45 3393.2L4111.42 3397.5 M 4116.87 3394.22L4116.66 3393.82 L4116.25 3393.41 L4115.84 3393.2 L4115.02 3393.2 L4114.62 3393.41 L4114.21 3393.82 L4114 3394.22 L4113.8 3394.84 L4113.8 3395.86 L4114 3396.47 L4114.21 3396.88 L4114.62 3397.29 L4115.02 3397.5 L4115.84 3397.5 L4116.25 3397.29 L4116.66 3396.88 L4116.87 3396.47 M 4118.22 3393.2L4118.22 3397.5 M 4118.22 3397.5L4120.67 3397.5 M 4122.02 3393.2L4122.02 3397.5 M 4124.88 3393.2L4122.02 3396.07 M 4123.04 3395.04L4124.88 3397.5 M 4126.23 3395.66L4129.92 3395.66 M 4134.13 3393.82L4133.72 3393.41 L4133.11 3393.2 L4132.29 3393.2 L4131.67 3393.41 L4131.27 3393.82 L4131.27 3394.22 L4131.47 3394.63 L4131.67 3394.84 L4132.08 3395.04 L4133.31 3395.45 L4133.72 3395.66 L4133.92 3395.86 L4134.13 3396.27 L4134.13 3396.88 L4133.72 3397.29 L4133.11 3397.5 L4132.29 3397.5 L4131.67 3397.29 L4131.27 3396.88 M 4135.48 3393.2L4136.5 3397.5 M 4137.52 3393.2L4136.5 3397.5 M 4137.52 3393.2L4138.55 3397.5 M 4139.57 3393.2L4138.55 3397.5 M 4140.92 3393.2L4140.92 3397.5 M 4140.92 3393.2L4142.35 3393.2 L4142.97 3393.41 L4143.37 3393.82 L4143.58 3394.22 L4143.78 3394.84 L4143.78 3395.86 L4143.58 3396.47 L4143.37 3396.88 L4142.97 3397.29 L4142.35 3397.5 L4140.92 3397.5 M 4145.13 3393.2L4145.13 3397.5 M 4147.71 3393.2L4147.3 3393.41 L4146.89 3393.82 L4146.69 3394.22 L4146.48 3394.84 L4146.48 3395.86 L4146.69 3396.47 L4146.89 3396.88 L4147.3 3397.29 L4147.71 3397.5 L4148.53 3397.5 L4148.94 3397.29 L4149.35 3396.88 L4149.55 3396.47 L4149.76 3395.86 L4149.76 3394.84 L4149.55 3394.22 L4149.35 3393.82 L4148.94 3393.41 L4148.53 3393.2 L4147.71 3393.2 M 4151.11 3395.66L4154.79 3395.66 M 4156.14 3393.2L4157.77 3397.5 M 4159.41 3393.2L4157.77 3397.5 M 4163.83 3394.22L4163.62 3393.82 L4163.22 3393.41 L4162.81 3393.2 L4161.99 3393.2 L4161.58 3393.41 L4161.17 3393.82 L4160.97 3394.22 L4160.76 3394.84 L4160.76 3395.86 L4160.97 3396.47 L4161.17 3396.88 L4161.58 3397.29 L4161.99 3397.5 L4162.81 3397.5 L4163.22 3397.29 L4163.62 3396.88 L4163.83 3396.47 M 4168.25 3394.22L4168.04 3393.82 L4167.63 3393.41 L4167.22 3393.2 L4166.41 3393.2 L4166 3393.41 L4165.59 3393.82 L4165.38 3394.22 L4165.18 3394.84 L4165.18 3395.86 L4165.38 3396.47 L4165.59 3396.88 L4166 3397.29 L4166.41 3397.5 L4167.22 3397.5 L4167.63 3397.29 L4168.04 3396.88 L4168.25 3396.47 M 4169.6 3395.66L4173.28 3395.66 M 4177.7 3394.22L4177.49 3393.82 L4177.08 3393.41 L4176.67 3393.2 L4175.86 3393.2 L4175.45 3393.41 L4175.04 3393.82 L4174.83 3394.22 L4174.63 3394.84 L4174.63 3395.86 L4174.83 3396.47 L4175.04 3396.88 L4175.45 3397.29 L4175.86 3397.5 L4176.67 3397.5 L4177.08 3397.29 L4177.49 3396.88 L4177.7 3396.47 L4177.7 3395.86 M 4176.67 3395.86L4177.7 3395.86 M 4179.05 3393.2L4179.05 3397.5 M 4179.05 3393.2L4181.91 3397.5 M 4181.91 3393.2L4181.91 3397.5 M 4183.26 3393.2L4183.26 3397.5 M 4183.26 3393.2L4184.69 3393.2 L4185.31 3393.41 L4185.72 3393.82 L4185.92 3394.22 L4186.12 3394.84 L4186.12 3395.86 L4185.92 3396.47 L4185.72 3396.88 L4185.31 3397.29 L4184.69 3397.5 L4183.26 3397.5 " fill="none"  stroke-width="0.6" c_note="note_pre" /></g><polyline points="4047.5 3317.5 4170 3317 4170 3403.5 4162 3403.5 4162 3380.5 4115.5 3380.5 4115.5 3403.5 4020 3403.5" stroke-width="1"  stroke-linecap="round" fill="none" layerid="10" net="" id="gge921" locked="0" /><polyline points="4020 3403.5 4020 3386.5" stroke-width="1"  stroke-linecap="round" fill="none" layerid="10" net="" id="gge3096" locked="0" /><path d="M 4020 3386.5 A 130.1422 130.1422 0 0 0 4047.4955 3317.5027" locked="0"  fill="none" stroke-width="1" c_helper_type="arc2" net="" layerid="10" id="gge3090" /></svg>